<mxfile host="app.diagrams.net" modified="2024-01-16T09:52:02.467Z" agent="Mozilla/5.0 (Windows NT 10.0; Win64; x64; rv:121.0) Gecko/20100101 Firefox/121.0" version="22.1.18" etag="D2gIS3lOYQRo7_zjn_MX" type="github">
  <diagram name="Page-1" id="arJp4ILqf5ed2CBST2v7">
    <mxGraphModel>
      <root>
        <mxCell id="0" />
        <mxCell id="1" parent="0" />
      </root>
    </mxGraphModel>
  </diagram>
</mxfile>
